<svg fill="none" height="24" viewBox="0 0 24 24" width="24" xmlns="http://www.w3.org/2000/svg"><g clip-rule="evenodd" fill="rgb(0,0,0)" fill-rule="evenodd"><path d="m12 4c-3.85432 0-7 3.16703-7 7.1 0 2.2246 1.69401 4.441 3.66964 6.2224.95643.8624 1.91736 1.5679 2.64136 2.0586.2675.1813.5014.3324.689.4503.1876-.1179.4215-.269.689-.4503.7239-.4907 1.6849-1.1962 2.6414-2.0586 1.9756-1.7814 3.6696-3.9978 3.6696-6.2224 0-3.93297-3.1457-7.1-7-7.1zm0 17c-.4924.8703-.4927.8702-.493.87l-.0007-.0004-.0019-.0011-.0061-.0035-.0208-.0119c-.0176-.0101-.0425-.0246-.0743-.0433-.0637-.0375-.155-.0919-.2701-.1625-.2299-.1412-.5552-.3471-.9441-.6107-.77605-.526-1.81507-1.2879-2.85864-2.2289-2.02437-1.8252-4.33036-4.5588-4.33036-7.7077 0-5.01404 4.01776-9.1 9-9.1 4.9822 0 9 4.08596 9 9.1 0 3.1489-2.306 5.8825-4.3304 7.7077-1.0435.941-2.0825 1.7029-2.8586 2.2289-.3889.2636-.7142.4695-.9441.6107-.1151.0706-.2064.125-.2701.1625-.0318.0187-.0568.0332-.0743.0433l-.0208.0119-.0061.0035-.0019.0011-.0007.0004c-.0003.0002-.0006.0003-.493-.87zm0 0 .4924.8703c-.3055.1729-.6793.1729-.9848 0z"/><path d="m12 7.5c-.8284 0-1.5.67157-1.5 1.5s.6716 1.5 1.5 1.5 1.5-.67157 1.5-1.5-.6716-1.5-1.5-1.5zm-3.5 1.5c0-1.933 1.567-3.5 3.5-3.5s3.5 1.567 3.5 3.5-1.567 3.5-3.5 3.5-3.5-1.567-3.5-3.5z"/><path d="m12.0001 15c-1.8146 0-3.40453.966-4.28196 2.4167l-1.7113-1.0351c1.22461-2.0247 3.44999-3.3816 5.99326-3.3816 2.5433 0 4.7687 1.3569 5.9933 3.3816l-1.7113 1.0351c-.8775-1.4507-2.4674-2.4167-4.282-2.4167z"/></g></svg>